<mxfile host="app.diagrams.net" modified="2023-08-29T09:07:57.143Z" agent="Mozilla/5.0 (Macintosh; Intel Mac OS X 10_15_7) AppleWebKit/537.36 (KHTML, like Gecko) Chrome/115.0.0.0 Safari/537.36" etag="Z9HqT2VGeiBf7txHe_5q" version="21.6.9" type="github">
  <diagram id="C5RBs43oDa-KdzZeNtuy" name="Page-1">
    <mxGraphModel dx="1434" dy="678" grid="1" gridSize="10" guides="1" tooltips="1" connect="1" arrows="1" fold="1" page="1" pageScale="1" pageWidth="827" pageHeight="1169" math="0" shadow="0">
      <root>
        <mxCell id="WIyWlLk6GJQsqaUBKTNV-0" />
        <mxCell id="WIyWlLk6GJQsqaUBKTNV-1" parent="WIyWlLk6GJQsqaUBKTNV-0" />
        <mxCell id="2jNLKK-pSZHmPOLY_wM6-5" value="" style="edgeStyle=orthogonalEdgeStyle;rounded=0;orthogonalLoop=1;jettySize=auto;html=1;" edge="1" parent="WIyWlLk6GJQsqaUBKTNV-1" source="2jNLKK-pSZHmPOLY_wM6-0" target="2jNLKK-pSZHmPOLY_wM6-1">
          <mxGeometry relative="1" as="geometry" />
        </mxCell>
        <mxCell id="2jNLKK-pSZHmPOLY_wM6-0" value="研发 push 代码" style="rounded=0;whiteSpace=wrap;html=1;" vertex="1" parent="WIyWlLk6GJQsqaUBKTNV-1">
          <mxGeometry x="200" y="80" width="120" height="60" as="geometry" />
        </mxCell>
        <mxCell id="2jNLKK-pSZHmPOLY_wM6-6" value="" style="edgeStyle=orthogonalEdgeStyle;rounded=0;orthogonalLoop=1;jettySize=auto;html=1;" edge="1" parent="WIyWlLk6GJQsqaUBKTNV-1" source="2jNLKK-pSZHmPOLY_wM6-1" target="2jNLKK-pSZHmPOLY_wM6-2">
          <mxGeometry relative="1" as="geometry" />
        </mxCell>
        <mxCell id="2jNLKK-pSZHmPOLY_wM6-1" value="告知测试" style="rounded=0;whiteSpace=wrap;html=1;" vertex="1" parent="WIyWlLk6GJQsqaUBKTNV-1">
          <mxGeometry x="200" y="180" width="120" height="60" as="geometry" />
        </mxCell>
        <mxCell id="2jNLKK-pSZHmPOLY_wM6-7" value="" style="edgeStyle=orthogonalEdgeStyle;rounded=0;orthogonalLoop=1;jettySize=auto;html=1;" edge="1" parent="WIyWlLk6GJQsqaUBKTNV-1" source="2jNLKK-pSZHmPOLY_wM6-2" target="2jNLKK-pSZHmPOLY_wM6-3">
          <mxGeometry relative="1" as="geometry" />
        </mxCell>
        <mxCell id="2jNLKK-pSZHmPOLY_wM6-2" value="测试打包" style="rounded=0;whiteSpace=wrap;html=1;" vertex="1" parent="WIyWlLk6GJQsqaUBKTNV-1">
          <mxGeometry x="200" y="280" width="120" height="60" as="geometry" />
        </mxCell>
        <mxCell id="2jNLKK-pSZHmPOLY_wM6-8" value="" style="edgeStyle=orthogonalEdgeStyle;rounded=0;orthogonalLoop=1;jettySize=auto;html=1;" edge="1" parent="WIyWlLk6GJQsqaUBKTNV-1" source="2jNLKK-pSZHmPOLY_wM6-3" target="2jNLKK-pSZHmPOLY_wM6-4">
          <mxGeometry relative="1" as="geometry" />
        </mxCell>
        <mxCell id="2jNLKK-pSZHmPOLY_wM6-3" value="测试上传" style="rounded=0;whiteSpace=wrap;html=1;" vertex="1" parent="WIyWlLk6GJQsqaUBKTNV-1">
          <mxGeometry x="200" y="380" width="120" height="60" as="geometry" />
        </mxCell>
        <mxCell id="2jNLKK-pSZHmPOLY_wM6-17" value="" style="edgeStyle=orthogonalEdgeStyle;rounded=0;orthogonalLoop=1;jettySize=auto;html=1;entryX=0.194;entryY=0.033;entryDx=0;entryDy=0;entryPerimeter=0;" edge="1" parent="WIyWlLk6GJQsqaUBKTNV-1" source="2jNLKK-pSZHmPOLY_wM6-4" target="2jNLKK-pSZHmPOLY_wM6-16">
          <mxGeometry relative="1" as="geometry" />
        </mxCell>
        <mxCell id="2jNLKK-pSZHmPOLY_wM6-4" value="测试发版" style="rounded=0;whiteSpace=wrap;html=1;" vertex="1" parent="WIyWlLk6GJQsqaUBKTNV-1">
          <mxGeometry x="200" y="480" width="120" height="60" as="geometry" />
        </mxCell>
        <mxCell id="2jNLKK-pSZHmPOLY_wM6-12" value="研发 push 代码" style="rounded=0;whiteSpace=wrap;html=1;" vertex="1" parent="WIyWlLk6GJQsqaUBKTNV-1">
          <mxGeometry x="390" y="80" width="120" height="60" as="geometry" />
        </mxCell>
        <mxCell id="2jNLKK-pSZHmPOLY_wM6-18" value="" style="edgeStyle=orthogonalEdgeStyle;rounded=0;orthogonalLoop=1;jettySize=auto;html=1;entryX=0.806;entryY=-0.05;entryDx=0;entryDy=0;entryPerimeter=0;" edge="1" parent="WIyWlLk6GJQsqaUBKTNV-1" source="2jNLKK-pSZHmPOLY_wM6-13" target="2jNLKK-pSZHmPOLY_wM6-16">
          <mxGeometry relative="1" as="geometry" />
        </mxCell>
        <mxCell id="2jNLKK-pSZHmPOLY_wM6-13" value="CI 自动打包&lt;br&gt;+&lt;br&gt;群通知" style="rounded=0;whiteSpace=wrap;html=1;" vertex="1" parent="WIyWlLk6GJQsqaUBKTNV-1">
          <mxGeometry x="390" y="480" width="120" height="60" as="geometry" />
        </mxCell>
        <mxCell id="2jNLKK-pSZHmPOLY_wM6-15" value="" style="edgeStyle=orthogonalEdgeStyle;rounded=0;orthogonalLoop=1;jettySize=auto;html=1;exitX=0.5;exitY=1;exitDx=0;exitDy=0;entryX=0.5;entryY=0;entryDx=0;entryDy=0;" edge="1" parent="WIyWlLk6GJQsqaUBKTNV-1" source="2jNLKK-pSZHmPOLY_wM6-12" target="2jNLKK-pSZHmPOLY_wM6-13">
          <mxGeometry relative="1" as="geometry">
            <mxPoint x="270" y="150" as="sourcePoint" />
            <mxPoint x="270" y="190" as="targetPoint" />
          </mxGeometry>
        </mxCell>
        <mxCell id="2jNLKK-pSZHmPOLY_wM6-16" value="执行测试" style="rounded=0;whiteSpace=wrap;html=1;" vertex="1" parent="WIyWlLk6GJQsqaUBKTNV-1">
          <mxGeometry x="200" y="600" width="310" height="60" as="geometry" />
        </mxCell>
      </root>
    </mxGraphModel>
  </diagram>
</mxfile>
